<?xml version="1.0" encoding="UTF-8"?>
<svg width="1200pt" height="1200pt" version="1.1" viewBox="0 0 1200 1200" xmlns="http://www.w3.org/2000/svg">
 <g>
  <path d="m591.6 52.801 292.8-22.801c32.398-2.3984 55.199 32.398 40.801 61.199l-31.199 58.801c146.4 96 243.6 261.6 243.6 450 0 225.6-139.2 418.8-336 499.2-15.602 6-32.398-4.8008-32.398-21.602l-0.007812-150c0-8.3984 4.8008-16.801 12-20.398 104.4-62.398 175.2-176.4 175.2-307.2 0-118.8-57.602-223.2-146.4-288l-28.801 56.398c-15.602 28.801-56.398 30-73.199 1.1992l-148.8-254.4c-15.598-26.398 1.1992-60 32.402-62.398z"/>
  <path d="m61.199 600c0-225.6 139.2-418.8 336-499.2 15.602-6 32.398 4.8008 32.398 21.602v148.8c0 8.3984-4.8008 16.801-12 20.398-104.4 63.598-174 177.6-174 308.4 0 118.8 57.602 223.2 146.4 288l28.801-56.398c15.602-28.801 56.398-30 73.199-1.1992l148.8 254.4c15.602 26.398-2.3984 60-32.398 62.398l-292.8 22.801c-32.398 2.3984-55.199-32.398-40.801-61.199l31.199-58.801c-147.6-96-244.8-261.6-244.8-450z"/>
 </g>
</svg>
