<?xml version="1.0" standalone="no"?>
<!DOCTYPE svg PUBLIC "-//W3C//DTD SVG 20010904//EN"
 "http://www.w3.org/TR/2001/REC-SVG-20010904/DTD/svg10.dtd">
<svg version="1.0" xmlns="http://www.w3.org/2000/svg"
 width="700.000000pt" height="700.000000pt" viewBox="0 0 700.000000 700.000000"
 preserveAspectRatio="xMidYMid meet">
<metadata>
Created by potrace 1.14, written by Peter Selinger 2001-2017
</metadata>
<g transform="translate(0.000000,700.000000) scale(0.100000,-0.100000)"
fill="#000000" stroke="none">
<path d="M3188 6990 c-1224 -118 -2277 -840 -2827 -1938 -173 -344 -283 -717
-343 -1152 -17 -128 -17 -672 0 -800 36 -260 82 -468 153 -687 209 -644 610
-1221 1143 -1646 494 -394 1053 -637 1686 -734 161 -25 201 -27 490 -27 321
-1 379 3 620 45 746 129 1468 527 1973 1087 484 536 775 1150 884 1862 25 161
27 201 27 490 1 321 -3 379 -45 620 -148 854 -641 1659 -1335 2180 -497 375
-1038 597 -1669 686 -128 18 -622 27 -757 14z m737 -488 c557 -86 1040 -296
1470 -638 141 -113 356 -328 467 -468 346 -433 552 -909 641 -1476 29 -185 31
-633 4 -815 -70 -468 -230 -893 -475 -1260 -103 -154 -218 -305 -233 -305 -5
0 -967 958 -2138 2130 l-2129 2130 67 54 c437 355 995 593 1541 655 52 6 111
13 130 15 19 2 145 3 280 1 181 -3 279 -9 375 -23z m-1860 -1909 c-5 -15 -341
-492 -359 -510 -7 -8 -118 -19 -314 -32 -342 -23 -362 -28 -427 -104 -60 -70
-65 -103 -65 -447 0 -344 5 -377 65 -447 68 -79 84 -83 388 -83 206 0 268 -3
271 -12 2 -7 10 -43 19 -81 24 -97 64 -173 130 -243 69 -74 135 -118 224 -151
246 -89 531 16 665 246 32 55 53 117 73 214 l5 27 478 0 477 0 884 -884 883
-883 -61 -51 c-348 -290 -828 -521 -1279 -616 -241 -51 -339 -60 -627 -60
-349 -1 -537 25 -848 114 -236 68 -538 203 -745 334 -770 486 -1262 1240
-1405 2156 -29 185 -31 633 -4 814 54 360 136 623 292 941 87 178 232 407 351
553 l67 84 434 -434 c239 -239 431 -439 428 -445z m236 -1350 c207 -105 175
-414 -49 -479 -200 -59 -387 139 -317 336 52 147 224 214 366 143z"/>
<path d="M2850 4953 c0 -4 397 -405 883 -891 l883 -883 23 25 c64 68 192 87
286 42 152 -70 193 -270 82 -402 l-26 -31 105 -104 105 -104 40 45 c64 74 105
162 133 292 l6 27 268 3 267 3 54 30 c30 17 67 48 83 69 50 70 52 92 34 416
-19 323 -25 352 -88 417 -64 67 -85 70 -627 119 l-496 45 -390 393 c-414 417
-425 427 -565 472 -49 16 -109 18 -557 22 -277 2 -503 0 -503 -5z"/>
</g>
</svg>
